<svg width="64" height="64" viewBox="0 0 64 64" fill="none" xmlns="http://www.w3.org/2000/svg">
<g clip-path="url(#clip0_3_56)">
<g clip-path="url(#clip1_3_56)">
<path d="M57.3333 13.6907C57.6925 13.898 57.9983 14.1863 58.2265 14.5325C58.4548 14.8788 58.5991 15.2735 58.648 15.6853L58.6667 16V50.6667C58.6667 51.1348 58.5434 51.5946 58.3094 52C58.0753 52.4054 57.7387 52.742 57.3333 52.976C56.9279 53.2101 56.4681 53.3333 56 53.3333C55.5319 53.3333 55.0721 53.21 54.6667 52.976C51.6452 51.2313 48.2419 50.2543 44.755 50.1306C41.2682 50.007 37.8042 50.7404 34.6667 52.2667V11.8027C38.3503 10.4267 42.2927 9.88241 46.2114 10.2088C50.1301 10.5352 53.9281 11.7242 57.3333 13.6907ZM29.3333 11.8053L29.336 52.2693C26.3221 50.8022 23.005 50.0658 19.6534 50.12C16.3018 50.1742 13.0102 51.0175 10.0453 52.5813L9.17334 53.0613L8.89868 53.1787L8.76801 53.2213L8.47468 53.2907L8.31201 53.3173L8.00001 53.3333H7.88801L7.59468 53.3013L7.38934 53.264L7.10134 53.1787L6.76534 53.0293L6.51201 52.88L6.27468 52.7013L6.11468 52.552L5.92001 52.3333L5.74934 52.096L5.69068 52L5.60534 51.84L5.48801 51.5653L5.44534 51.4347L5.37601 51.1413L5.34934 50.9787L5.33868 50.848L5.33334 16C5.33336 15.5319 5.45658 15.0721 5.69063 14.6667C5.92467 14.2613 6.2613 13.9247 6.66668 13.6907C10.0721 11.7247 13.8702 10.5361 17.7889 10.2102C21.7076 9.88423 25.6499 10.429 29.3333 11.8053Z" fill="#18181B"/>
</g>
</g>
<defs>
<clipPath id="clip0_3_56">
<rect width="64" height="64" fill="white"/>
</clipPath>
<clipPath id="clip1_3_56">
<rect width="64" height="64" fill="white"/>
</clipPath>
</defs>
</svg>
