<svg width="214" height="64" viewBox="0 0 214 64" fill="none" xmlns="http://www.w3.org/2000/svg">
<g clip-path="url(#clip0_3_57)">
<g clip-path="url(#clip1_3_57)">
<path d="M57.3333 13.6907C57.6925 13.898 57.9983 14.1863 58.2265 14.5325C58.4548 14.8788 58.5991 15.2735 58.648 15.6853L58.6667 16V50.6667C58.6667 51.1348 58.5434 51.5946 58.3094 52C58.0753 52.4054 57.7387 52.742 57.3333 52.976C56.9279 53.2101 56.4681 53.3333 56 53.3333C55.5319 53.3333 55.0721 53.21 54.6667 52.976C51.6452 51.2313 48.2419 50.2543 44.755 50.1306C41.2682 50.007 37.8042 50.7404 34.6667 52.2667V11.8027C38.3503 10.4267 42.2927 9.88241 46.2114 10.2088C50.1301 10.5352 53.9281 11.7242 57.3333 13.6907ZM29.3333 11.8053L29.336 52.2693C26.3221 50.8022 23.005 50.0658 19.6534 50.12C16.3018 50.1742 13.0102 51.0175 10.0453 52.5813L9.17334 53.0613L8.89868 53.1787L8.76801 53.2213L8.47468 53.2907L8.31201 53.3173L8.00001 53.3333H7.88801L7.59468 53.3013L7.38934 53.264L7.10134 53.1787L6.76534 53.0293L6.51201 52.88L6.27468 52.7013L6.11468 52.552L5.92001 52.3333L5.74934 52.096L5.69068 52L5.60534 51.84L5.48801 51.5653L5.44534 51.4347L5.37601 51.1413L5.34934 50.9787L5.33868 50.848L5.33334 16C5.33336 15.5319 5.45658 15.0721 5.69063 14.6667C5.92467 14.2613 6.2613 13.9247 6.66668 13.6907C10.0721 11.7247 13.8702 10.5361 17.7889 10.2102C21.7076 9.88423 25.6499 10.429 29.3333 11.8053Z" fill="#18181B"/>
</g>
<path d="M112.283 23.5781C112.11 21.9654 111.384 20.7098 110.104 19.8111C108.836 18.9124 107.186 18.4631 105.155 18.4631C103.727 18.4631 102.502 18.6785 101.48 19.1094C100.458 19.5402 99.6766 20.125 99.1349 20.8636C98.5933 21.6023 98.3163 22.4455 98.304 23.3935C98.304 24.1813 98.4825 24.8646 98.8395 25.4432C99.2088 26.0218 99.7074 26.5142 100.335 26.9205C100.963 27.3144 101.659 27.6468 102.422 27.9176C103.185 28.1884 103.955 28.4162 104.73 28.6009L108.276 29.4872C109.704 29.8196 111.076 30.2689 112.393 30.8352C113.723 31.4015 114.911 32.1155 115.957 32.9773C117.016 33.839 117.853 34.8793 118.469 36.098C119.084 37.3168 119.392 38.7448 119.392 40.3821C119.392 42.598 118.826 44.5492 117.693 46.2358C116.561 47.91 114.923 49.2211 112.781 50.169C110.652 51.1046 108.072 51.5724 105.044 51.5724C102.102 51.5724 99.5473 51.117 97.3807 50.206C95.2263 49.295 93.5398 47.9654 92.321 46.2173C91.1146 44.4692 90.4621 42.3395 90.3636 39.8281H97.1037C97.2022 41.1454 97.6084 42.241 98.3224 43.1151C99.0365 43.9891 99.9659 44.6416 101.111 45.0724C102.268 45.5033 103.561 45.7188 104.989 45.7188C106.478 45.7188 107.783 45.4972 108.903 45.054C110.036 44.5985 110.922 43.9706 111.562 43.1705C112.203 42.358 112.529 41.41 112.541 40.3267C112.529 39.3419 112.24 38.5294 111.673 37.8892C111.107 37.2367 110.313 36.6951 109.291 36.2642C108.282 35.821 107.1 35.4271 105.746 35.0824L101.443 33.9744C98.3286 33.1742 95.8665 31.9616 94.0568 30.3366C92.2595 28.6993 91.3608 26.5265 91.3608 23.8182C91.3608 21.59 91.964 19.6387 93.1705 17.9645C94.3892 16.2902 96.045 14.9915 98.1378 14.0682C100.231 13.1326 102.6 12.6648 105.247 12.6648C107.931 12.6648 110.282 13.1326 112.301 14.0682C114.332 14.9915 115.927 16.2779 117.084 17.9276C118.241 19.5649 118.838 21.4484 118.875 23.5781H112.283ZM129.359 61.6364C128.448 61.6364 127.605 61.5625 126.829 61.4148C126.066 61.2794 125.457 61.1193 125.001 60.9347L126.552 55.7273C127.525 56.0104 128.393 56.1458 129.156 56.1335C129.919 56.1212 130.59 55.8812 131.169 55.4134C131.76 54.9579 132.258 54.1946 132.664 53.1236L133.237 51.5909L122.951 22.6364H130.042L136.579 44.0568H136.875L143.43 22.6364H150.539L139.183 54.4347C138.654 55.9366 137.952 57.223 137.078 58.294C136.204 59.3774 135.133 60.2022 133.865 60.7685C132.609 61.3471 131.107 61.6364 129.359 61.6364ZM161.85 34.3807V51H155.165V22.6364H161.554V27.456H161.887C162.539 25.8679 163.579 24.6061 165.007 23.6705C166.448 22.7348 168.227 22.267 170.344 22.267C172.301 22.267 174.007 22.6856 175.459 23.5227C176.924 24.3598 178.057 25.5724 178.857 27.1605C179.669 28.7486 180.069 30.6752 180.057 32.9403V51H173.373V33.9744C173.373 32.0786 172.88 30.5952 171.895 29.5241C170.923 28.4531 169.575 27.9176 167.851 27.9176C166.682 27.9176 165.641 28.1761 164.73 28.6932C163.832 29.1979 163.124 29.9304 162.607 30.8906C162.102 31.8509 161.85 33.0142 161.85 34.3807ZM192.946 42.0994L192.928 34.0298H193.999L204.192 22.6364H212.003L199.465 36.5966H198.08L192.946 42.0994ZM186.853 51V13.1818H193.537V51H186.853ZM204.654 51L195.421 38.0923L199.926 33.3835L212.65 51H204.654Z" fill="#18181B"/>
</g>
<defs>
<clipPath id="clip0_3_57">
<rect width="214" height="64" fill="white"/>
</clipPath>
<clipPath id="clip1_3_57">
<rect width="64" height="64" fill="white"/>
</clipPath>
</defs>
</svg>
